<svg xmlns="http://www.w3.org/2000/svg" xmlns:xlink="http://www.w3.org/1999/xlink" width="100" height="100" viewBox="0 0 100 100"><g><g transform="translate(50 50) scale(0.69 0.69) rotate(0) translate(-50 -50)" style="fill:#002776"><svg fill="#002776" xmlns="http://www.w3.org/2000/svg" xmlns:xlink="http://www.w3.org/1999/xlink" version="1.0" x="0px" y="0px" viewBox="0 0 100 100" enable-background="new 0 0 100 100" xml:space="preserve"><polygon points="53.2736893,38.0383644 53.2721176,38.0369034 74.7577362,16.5513363 70.5311508,12.3246937 49.0455856,33.8103142   36.1855507,20.9502811 31.9590206,25.1768684 49.0471001,42.2649498 "></polygon><polygon points="58.1067848,42.87146 53.8801422,47.0980453 72.839119,66.0569687 77.0657043,61.8303795 62.3348312,47.0995598   94.7033691,14.7309675 90.4768372,10.5044365 58.1082458,42.8729744 "></polygon><polygon points="44.9776573,56.0005836 44.9791756,56.0021019 30.7995625,70.1816025 35.0261497,74.4082413 49.2057037,60.2286301   80.1158218,91.1387482 84.3424149,86.9122238 49.2042465,51.7739983 "></polygon><polygon points="40.1445618,51.1674881 44.371151,46.9409027 10.1527672,12.7225761 5.9262085,16.9491634 35.9165154,46.9394417   6.7706499,76.0852203 10.9972086,80.3118134 40.1430473,51.1659737 "></polygon></svg></g></g></svg>